<svg xmlns="http://www.w3.org/2000/svg" data-name="Layer 1" viewBox="0 0 512 640" x="0px" y="0px"><title>UI</title><path d="M353.717,184.9,264.269,96.513a9.979,9.979,0,0,0-7.143-2.861v-.026H81a10,10,0,0,0-10,10V466a10,10,0,0,0,10,10H346.688a10,10,0,0,0,10-10V191.882h-.022A9.978,9.978,0,0,0,353.717,184.9ZM267.24,127.566l55.1,54.444h-55.1ZM91,456V113.626H247.24V192.01a10,10,0,0,0,10,10h79.448V456Z"/><path d="M278.5,283.651h-129.3a10,10,0,0,0,0,20H278.5a10,10,0,0,0,0-20Z"/><path d="M278.5,354.358h-129.3a10,10,0,0,0,0,20H278.5a10,10,0,0,0,0-20Z"/><path d="M440.975,133.752a9.969,9.969,0,0,0-3.912-7.435L348.58,38.887a9.964,9.964,0,0,0-5.765-2.781c-.173-.024-.345-.048-.52-.063s-.35-.022-.526-.026c-.111,0-.219-.017-.331-.017H165.312a10,10,0,0,0-10,10V74.354a10,10,0,0,0,20,0V56h156.24v78.384a10,10,0,0,0,10,10H421v253.99H377.006a10,10,0,0,0,0,20H431a10,10,0,0,0,10-10V134.256c0-.111-.013-.219-.017-.329C440.981,133.868,440.978,133.81,440.975,133.752Zm-89.423-9.368V69.939l55.1,54.445Z"/><text x="0" y="527" fill="#000000" font-size="5px" font-weight="bold" font-family="'Helvetica Neue', Helvetica, Arial-Unicode, Arial, Sans-serif">Created by icongeek</text><text x="0" y="532" fill="#000000" font-size="5px" font-weight="bold" font-family="'Helvetica Neue', Helvetica, Arial-Unicode, Arial, Sans-serif">from the Noun Project</text></svg>